<svg xmlns="http://www.w3.org/2000/svg" width="16" height="226" viewBox="0 0 16 226"><defs><style>.a,.b,.c,.d,.e,.i{fill:none;}.b{stroke:#1f61c5;}.b,.c,.d,.e,.f{stroke-width:3px;}.c{stroke:#4d4f5c;}.d{stroke:#ffbe00;}.e{stroke:#0a1a27;}.f{fill:#fff;stroke:#55d8fe;}.g,.h{stroke:none;}.h{fill:#d2dae0;}</style></defs><g transform="translate(-500 -287)"><g class="a" transform="translate(500 413)"><path class="g" d="M8,0A8,8,0,1,1,0,8,8,8,0,0,1,8,0Z"/><path class="h" d="M 8 3 C 5.242989540100098 3 3 5.242989540100098 3 8 C 3 10.75700950622559 5.242989540100098 13 8 13 C 10.75700950622559 13 13 10.75700950622559 13 8 C 13 5.242989540100098 10.75700950622559 3 8 3 M 8 0 C 12.41827964782715 0 16 3.581720352172852 16 8 C 16 12.41827964782715 12.41827964782715 16 8 16 C 3.581720352172852 16 0 12.41827964782715 0 8 C 0 3.581720352172852 3.581720352172852 0 8 0 Z"/></g><g class="b" transform="translate(500 455)"><circle class="g" cx="8" cy="8" r="8"/><circle class="i" cx="8" cy="8" r="6.5"/></g><g class="c" transform="translate(500 497)"><circle class="g" cx="8" cy="8" r="8"/><circle class="i" cx="8" cy="8" r="6.5"/></g><g class="d" transform="translate(500 371)"><circle class="g" cx="8" cy="8" r="8"/><circle class="i" cx="8" cy="8" r="6.5"/></g><g class="e" transform="translate(500 329)"><circle class="g" cx="8" cy="8" r="8"/><circle class="i" cx="8" cy="8" r="6.5"/></g><g class="f" transform="translate(500 287)"><circle class="g" cx="8" cy="8" r="8"/><circle class="i" cx="8" cy="8" r="6.5"/></g></g></svg>