<svg xmlns="http://www.w3.org/2000/svg" width="20" height="22.5" viewBox="0 0 20 22.5"><defs><style>.a{fill:#b7b7b7;}</style></defs><path class="a" d="M163.156,238.5a1.922,1.922,0,0,1-1.875-1.875V218.813h-.344a.9.9,0,0,1-.668-.271.915.915,0,0,1-.27-.672.9.9,0,0,1,.27-.666.914.914,0,0,1,.668-.266h4.938a.9.9,0,0,1,.27-.672.914.914,0,0,1,.668-.266h6.375a.921.921,0,0,1,.938.938h4.938a.9.9,0,0,1,.668.271.915.915,0,0,1,.27.672.9.9,0,0,1-.27.666.914.914,0,0,1-.668.266h-.344v17.813a1.922,1.922,0,0,1-1.875,1.875Zm0-19.687v17.813h13.688V218.813ZM166.469,233a.9.9,0,0,0,.271.668.915.915,0,0,0,.672.27.9.9,0,0,0,.666-.27.914.914,0,0,0,.266-.668V222.406a.9.9,0,0,0-.271-.668.915.915,0,0,0-.672-.27.9.9,0,0,0-.666.27.914.914,0,0,0-.266.668Zm5.188,0a.9.9,0,0,0,.271.668.915.915,0,0,0,.672.27.9.9,0,0,0,.666-.27.914.914,0,0,0,.266-.668V222.406a.9.9,0,0,0-.271-.668.915.915,0,0,0-.672-.27.9.9,0,0,0-.666.27.914.914,0,0,0-.266.668Zm-8.5-14.187v0Z" transform="translate(-160 -216)"/></svg>