<svg xmlns="http://www.w3.org/2000/svg" width="20" height="25" viewBox="0 0 20 25"><path d="M165.906,195.688h8.187a.9.9,0,0,0,.668-.271.915.915,0,0,0,.27-.672.9.9,0,0,0-.27-.666.914.914,0,0,0-.668-.266h-8.187a.9.9,0,0,0-.668.271.915.915,0,0,0-.27.672.9.9,0,0,0,.27.666A.914.914,0,0,0,165.906,195.688Zm0-5.313h8.187a.9.9,0,0,0,.668-.271.915.915,0,0,0,.27-.672.9.9,0,0,0-.27-.666.914.914,0,0,0-.668-.266h-8.187a.9.9,0,0,0-.668.271.915.915,0,0,0-.27.672.9.9,0,0,0,.27.666A.914.914,0,0,0,165.906,190.375ZM161.875,201A1.922,1.922,0,0,1,160,199.125v-21.25A1.922,1.922,0,0,1,161.875,176h10.5a1.809,1.809,0,0,1,.741.156,1.972,1.972,0,0,1,.6.406l5.719,5.719a1.971,1.971,0,0,1,.406.6,1.809,1.809,0,0,1,.156.741v15.5A1.922,1.922,0,0,1,178.125,201Zm10.344-18.25v-4.875H161.875v21.25h16.25V183.687h-4.969a.921.921,0,0,1-.937-.937Zm-10.344-4.875v0Z" transform="translate(-160 -176)"/></svg>