<svg xmlns="http://www.w3.org/2000/svg" width="19.2" height="24" viewBox="0 0 19.2 24"><defs><style>.a{fill:#0a1a27;}</style></defs><path class="a" d="M165.67,194.9h7.86a.868.868,0,0,0,.641-.26.879.879,0,0,0,.259-.645.861.861,0,0,0-.259-.64.877.877,0,0,0-.641-.255h-7.86a.868.868,0,0,0-.641.26.879.879,0,0,0-.259.645.861.861,0,0,0,.259.64A.877.877,0,0,0,165.67,194.9Zm0-5.1h7.86a.868.868,0,0,0,.641-.26.879.879,0,0,0,.259-.645.861.861,0,0,0-.259-.64.877.877,0,0,0-.641-.255h-7.86a.868.868,0,0,0-.641.26.879.879,0,0,0-.259.645.861.861,0,0,0,.259.64A.878.878,0,0,0,165.67,189.8ZM161.8,200a1.846,1.846,0,0,1-1.8-1.8V177.8a1.846,1.846,0,0,1,1.8-1.8h10.08a1.737,1.737,0,0,1,.712.15,1.892,1.892,0,0,1,.578.39l5.49,5.49a1.892,1.892,0,0,1,.39.578,1.737,1.737,0,0,1,.15.712V198.2a1.846,1.846,0,0,1-1.8,1.8Zm9.93-17.52V177.8H161.8v20.4h15.6V183.38h-4.77a.884.884,0,0,1-.9-.9Zm-9.93-4.68v0Z" transform="translate(-160 -176)"/></svg>