<svg xmlns="http://www.w3.org/2000/svg" width="17.833" height="17.81" viewBox="0 0 17.833 17.81"><defs><style>.a{fill:#0a1a27;}</style></defs><path class="a" d="M108.141,194.259l-3.567-3.567,1.611-1.611a1.389,1.389,0,0,1,1.933,0l1.634,1.634a1.389,1.389,0,0,1,0,1.933Zm-14.52,10.953v-3.59l4.464-4.464L93,192.05,97,188l5.131,5.131,2.439-2.439,3.567,3.567L105.7,196.7l5.131,5.131-4.027,3.981-5.108-5.085-4.487,4.487Zm5.454-9.043,2.071-2.071-1.68-1.68-1.1,1.1-.966-.966,1.1-1.1-1.473-1.473-2.071,2.071Zm7.686,7.709,2.071-2.071-1.473-1.473-1.1,1.1-.966-.966,1.1-1.1-1.68-1.68-2.071,2.071ZM95,203.832h1.611l9.55-9.55-1.611-1.611L95,202.221Z" transform="translate(-93 -188)"/></svg>