<svg xmlns="http://www.w3.org/2000/svg" width="22.222" height="20" viewBox="0 0 22.222 20"><defs><style>.a{fill:#fff;opacity:0.5;}</style></defs><path class="a" d="M81.667,236A1.672,1.672,0,0,1,80,234.333V217.667A1.672,1.672,0,0,1,81.667,216h7.5a1.672,1.672,0,0,1,1.667,1.667v2.917h9.722a1.672,1.672,0,0,1,1.667,1.667v12.083A1.672,1.672,0,0,1,100.556,236Zm0-1.667h2.917v-2.917H81.667Zm0-4.583h2.917v-2.917H81.667Zm0-4.583h2.917V222.25H81.667Zm0-4.583h2.917v-2.917H81.667Zm4.583,13.75h2.917v-2.917H86.25Zm0-4.583h2.917v-2.917H86.25Zm0-4.583h2.917V222.25H86.25Zm0-4.583h2.917v-2.917H86.25Zm4.583,13.75h9.722V222.25H90.833v2.917h2.222v1.667H90.833v2.917h2.222v1.667H90.833Zm5.139-7.5v-1.667h1.667v1.667Zm0,4.583V229.75h1.667v1.667Z" transform="translate(-80 -216)"/></svg>