<svg xmlns="http://www.w3.org/2000/svg" width="18" height="20" viewBox="0 0 18 20"><defs><style>.a{fill:#0a1a27;}</style></defs><path class="a" d="M131.92,192.5a2.4,2.4,0,1,1,1.725-.7A2.331,2.331,0,0,1,131.92,192.5ZM121.5,196a1.538,1.538,0,0,1-1.5-1.5V179a1.538,1.538,0,0,1,1.5-1.5h1.625v-.7a.786.786,0,0,1,.8-.8.811.811,0,0,1,.588.23.762.762,0,0,1,.237.57v.7h8.5v-.7a.786.786,0,0,1,.8-.8.811.811,0,0,1,.588.23.762.762,0,0,1,.237.57v.7H136.5A1.538,1.538,0,0,1,138,179v15.5a1.538,1.538,0,0,1-1.5,1.5Zm0-1.5h15V183.75h-15Zm0-12.25h15V179h-15Zm0,0v0Z" transform="translate(-120 -176)"/></svg>