<svg xmlns="http://www.w3.org/2000/svg" width="20" height="17.647" viewBox="0 0 20 17.647"><path d="M7.718,11.637h2.941a.735.735,0,1,0,0-1.471H7.718a.735.735,0,1,0,0,1.471Zm0,3.922h2.941a.735.735,0,1,0,0-1.471H7.718a.735.735,0,1,0,0,1.471Zm0,3.922h2.941a.735.735,0,1,0,0-1.471H7.718a.735.735,0,1,0,0,1.471ZM16.1,17.225a.462.462,0,0,0,.184-.037.509.509,0,0,0,.159-.11l3.627-3.652a.779.779,0,0,0,.257-.515A.68.68,0,0,0,20.1,12.4a.74.74,0,0,0-1.054,0L16.1,15.338l-.882-.858a.728.728,0,1,0-1.029,1.029l1.569,1.569a.509.509,0,0,0,.159.11.462.462,0,0,0,.184.037ZM5.071,23.647a1.411,1.411,0,0,1-1.029-.441A1.411,1.411,0,0,1,3.6,22.176V7.471a1.411,1.411,0,0,1,.441-1.029A1.411,1.411,0,0,1,5.071,6H22.129A1.508,1.508,0,0,1,23.6,7.471V22.176a1.508,1.508,0,0,1-1.471,1.471Zm0-1.471H22.129V7.471H5.071Zm0,0v0Z" transform="translate(-3.6 -6)"/></svg>