<svg xmlns="http://www.w3.org/2000/svg" width="17.594" height="18" viewBox="0 0 17.594 18"><defs><style>.a{fill:#0a1a27;}</style></defs><path class="a" d="M161.393,194a1.357,1.357,0,0,1-.975-.4,1.276,1.276,0,0,1-.418-.945v-15.3a1.276,1.276,0,0,1,.418-.945,1.357,1.357,0,0,1,.975-.4H168.7a1.38,1.38,0,0,1,.551.112,1.468,1.468,0,0,1,.447.292l4.735,4.59a1.417,1.417,0,0,1,.3.434,1.269,1.269,0,0,1,.116.534v5.512h-1.393V182.3h-4.41a.685.685,0,0,1-.5-.194.643.643,0,0,1-.2-.481V177.35h-6.963v15.3h9.517V194Zm14.762-.472-2.46-2.385v2.138a.641.641,0,0,1-.2.481.691.691,0,0,1-.5.194.677.677,0,0,1-.495-.194.648.648,0,0,1-.2-.481V189.5a.643.643,0,0,1,.2-.481.685.685,0,0,1,.5-.194h3.9a.683.683,0,0,1,.5.2.649.649,0,0,1,.2.484.636.636,0,0,1-.2.48.69.69,0,0,1-.5.191H174.67l2.484,2.408a.653.653,0,0,1,.009.949.729.729,0,0,1-.507.2A.7.7,0,0,1,176.155,193.528Zm-14.762-.878v0Z" transform="translate(-160 -176)"/></svg>