<svg xmlns="http://www.w3.org/2000/svg" xmlns:xlink="http://www.w3.org/1999/xlink" width="357.18" height="359.714" viewBox="0 0 357.18 359.714"><defs><style>.a{fill:url(#a);}.b{fill:url(#b);}.c{fill:url(#c);}.d{fill:url(#d);}.e{fill:url(#e);}.f{fill:url(#f);}.g{filter:url(#g);}</style><radialGradient id="a" cx="-0.278" cy="0.307" r="1.284" gradientTransform="matrix(1, -0.029, 0.016, 0.575, -0.005, 0.122)" gradientUnits="objectBoundingBox"><stop offset="0" stop-color="#323b67"/><stop offset="1" stop-color="#0a1a27"/></radialGradient><radialGradient id="b" cx="0.531" cy="-3.385" r="4.405" gradientTransform="matrix(0, 1, -0.41, 0, -0.855, -3.917)" gradientUnits="objectBoundingBox"><stop offset="0" stop-color="#323b67"/><stop offset="1" stop-color="#ffbe00"/></radialGradient><radialGradient id="c" cx="1.355" cy="-0.508" r="1.614" gradientTransform="matrix(0, 1, -0.917, 0, 0.889, -1.863)" gradientUnits="objectBoundingBox"><stop offset="0" stop-color="#323b67"/><stop offset="0" stop-color="#333c67"/><stop offset="1" stop-color="#d2dae0"/></radialGradient><radialGradient id="d" cx="1.767" cy="0.672" r="1.767" gradientTransform="matrix(-1, 0, 0, -0.452, 3.535, 0.975)" gradientUnits="objectBoundingBox"><stop offset="0" stop-color="#343d6a"/><stop offset="0" stop-color="#454861"/><stop offset="1" stop-color="#1f61c5"/></radialGradient><radialGradient id="e" cx="1" cy="3.055" r="3.05" gradientTransform="matrix(0, -1, 0.605, 0, -0.848, 4.055)" gradientUnits="objectBoundingBox"><stop offset="0" stop-color="#333c69"/><stop offset="0" stop-color="#484466"/><stop offset="1" stop-color="#1f61c5"/></radialGradient><radialGradient id="f" cx="0.074" cy="1.323" r="1.313" gradientTransform="matrix(0, -1, 0.734, 0, -0.897, 1.397)" gradientUnits="objectBoundingBox"><stop offset="0" stop-color="#333c69"/><stop offset="0" stop-color="#5a4167"/><stop offset="1" stop-color="#38b5e8"/></radialGradient><filter id="g" x="119.884" y="0" width="237.297" height="182.435" filterUnits="userSpaceOnUse"><feOffset dy="3" input="SourceAlpha"/><feGaussianBlur stdDeviation="7.5" result="h"/><feFlood flood-opacity="0.149"/><feComposite operator="in" in2="h"/><feComposite in="SourceGraphic"/></filter></defs><g transform="translate(-312.001 -209.233)"><path class="a" d="M143.7-51.927a168.831,168.831,0,0,1,0,140.27A168.831,168.831,0,0,1,37.686,180.2l-9.513-32.4A135.065,135.065,0,0,0,112.98,74.316a135.065,135.065,0,0,0,0-112.216Z" transform="translate(490.73 381.908)"/><path class="b" d="M59.914,128.348a168.831,168.831,0,0,1-95.13,0l9.513-32.4a135.065,135.065,0,0,0,76.1,0Z" transform="translate(468.502 433.76)"/><path class="c" d="M-7.7,147.426A168.831,168.831,0,0,1-113.7,55.569l30.715-14.027A135.065,135.065,0,0,0,1.818,115.027Z" transform="translate(440.98 414.682)"/><path class="d" d="M-109.738,107.008a168.831,168.831,0,0,1,62.3-212.164l18.255,28.406A135.065,135.065,0,0,0-79.023,92.981Z" transform="translate(437.016 363.243)"/><path class="e" d="M-67.58-98.2A168.831,168.831,0,0,1,23.7-125v33.766A135.065,135.065,0,0,0-49.325-69.793Z" transform="translate(457.154 356.285)"/><g class="g" transform="matrix(1, 0, 0, 1, 312, 209.23)"><path class="f" d="M.1-123.578c84.532-1.186,161.3,39.03,192.3,122.386l-40.67,15.023C131.144-44.765,69.373-87.695.913-82Z" transform="translate(142.28 143.1)"/></g></g></svg>