<svg xmlns="http://www.w3.org/2000/svg" width="20" height="18" viewBox="0 0 20 18"><path d="M14.1,24a1.024,1.024,0,0,1-1.025-1.025.974.974,0,0,1,.075-.363,1,1,0,0,1,.225-.337L18,17.65l-.525-.525L12.85,21.75a1.038,1.038,0,0,1-.325.225.942.942,0,0,1-.375.075.982.982,0,0,1-1-1,.906.906,0,0,1,.275-.7l4.625-4.625-.525-.525L10.9,19.8a1.038,1.038,0,0,1-.325.225,1.007,1.007,0,0,1-.4.075,1.025,1.025,0,0,1-1-1,.942.942,0,0,1,.075-.375,1.038,1.038,0,0,1,.225-.325L14.1,13.775l-.525-.525-4.6,4.625a.946.946,0,0,1-.3.2,1.077,1.077,0,0,1-.425.075.991.991,0,0,1-.713-.275.927.927,0,0,1-.287-.7.942.942,0,0,1,.075-.375,1.038,1.038,0,0,1,.225-.325L13.125,10.9,16.3,14.075a2.753,2.753,0,0,0,.613.463,1.649,1.649,0,0,0,.813.188,1.906,1.906,0,0,0,1.35-.513,1.946,1.946,0,0,0,.412-2.075,2.042,2.042,0,0,0-.463-.662L14.55,7l.15-.175a3.043,3.043,0,0,1,.95-.612A2.78,2.78,0,0,1,16.7,6a3.3,3.3,0,0,1,1.2.213,2.872,2.872,0,0,1,1,.662l4.225,4.25a2.872,2.872,0,0,1,.663,1A3.525,3.525,0,0,1,24,13.4a2.5,2.5,0,0,1-.225,1.013,3.063,3.063,0,0,1-.65.938L14.8,23.7a.985.985,0,0,1-.35.25,1.108,1.108,0,0,1-.35.05ZM6.225,16.7l-1.35-1.35a2.684,2.684,0,0,1-.65-.95A3.008,3.008,0,0,1,4,13.25a2.866,2.866,0,0,1,.25-1.2,3.113,3.113,0,0,1,.625-.925L9.1,6.875a3.022,3.022,0,0,1,.95-.637A2.7,2.7,0,0,1,11.125,6a3.557,3.557,0,0,1,1.2.188,2.809,2.809,0,0,1,1.025.688L18.475,12a1.449,1.449,0,0,1,.313.425.991.991,0,0,1,.087.4,1.112,1.112,0,0,1-1.15,1.15,1.077,1.077,0,0,1-.462-.113,1.677,1.677,0,0,1-.462-.337l-3.7-3.7Z" transform="translate(-4 -6)"/></svg>