<svg xmlns="http://www.w3.org/2000/svg" width="20" height="18.159" viewBox="0 0 20 18.159"><path d="M11.886,20.845a.742.742,0,0,0,.261-.057.674.674,0,0,0,.239-.148l7.659-7.682a1.953,1.953,0,0,0,.443-.67,2.061,2.061,0,0,0,.148-.761,2.15,2.15,0,0,0-.148-.773,1.928,1.928,0,0,0-.443-.682L15.955,5.982a1.928,1.928,0,0,0-.682-.443,2.15,2.15,0,0,0-.773-.148,2.061,2.061,0,0,0-.761.148,1.953,1.953,0,0,0-.67.443l-.409.409L14.5,8.255a3.581,3.581,0,0,1,.523.739,1.9,1.9,0,0,1,.227.92,2.074,2.074,0,0,1-.67,1.523,2.128,2.128,0,0,1-1.534.659,2.283,2.283,0,0,1-.943-.17,2.361,2.361,0,0,1-.693-.489L9.75,9.777,5.636,13.891a.659.659,0,0,0-.159.239.759.759,0,0,0-.045.261.661.661,0,0,0,.682.682A.538.538,0,0,0,6.375,15a.938.938,0,0,0,.216-.159l3.136-3.136.955.955L7.568,15.777a.638.638,0,0,0-.159.25.858.858,0,0,0-.045.273.7.7,0,0,0,.682.682.625.625,0,0,0,.261-.057.728.728,0,0,0,.216-.148l3.136-3.136.955.955L9.5,17.709a.674.674,0,0,0-.148.239.79.79,0,0,0-.057.284.7.7,0,0,0,.682.682.667.667,0,0,0,.25-.045.693.693,0,0,0,.227-.159l3.136-3.136.955.955-3.136,3.136a.638.638,0,0,0-.159.25.8.8,0,0,0-.045.25.629.629,0,0,0,.682.682Zm0,1.364a1.9,1.9,0,0,1-1.341-.557,2.262,2.262,0,0,1-.7-1.375,2.235,2.235,0,0,1-1.932-1.932A2.159,2.159,0,0,1,6.625,17.7,2.312,2.312,0,0,1,6,16.414a2.284,2.284,0,0,1-1.386-.682,1.9,1.9,0,0,1-.545-1.364,2.15,2.15,0,0,1,.148-.773,1.928,1.928,0,0,1,.443-.682L9.75,7.823l2.5,2.5a1.423,1.423,0,0,0,.4.284.979.979,0,0,0,.42.1.906.906,0,0,0,.818-.818.737.737,0,0,0-.08-.307,1.278,1.278,0,0,0-.261-.352L10.3,5.982a1.928,1.928,0,0,0-.682-.443,2.15,2.15,0,0,0-.773-.148,2.061,2.061,0,0,0-.761.148,1.953,1.953,0,0,0-.67.443L3.955,9.436a1.813,1.813,0,0,0-.443.67,2.773,2.773,0,0,0-.148.784,1.846,1.846,0,0,0,.17.875A3.655,3.655,0,0,0,4,12.527l-.977.977a3.986,3.986,0,0,1-.739-1.2A3.8,3.8,0,0,1,2,10.868a3.354,3.354,0,0,1,.261-1.307A3.4,3.4,0,0,1,3,8.459L6.432,5.027a3.166,3.166,0,0,1,1.136-.739,3.663,3.663,0,0,1,1.3-.239,3.571,3.571,0,0,1,1.284.239,3.19,3.19,0,0,1,1.125.739l.409.409.409-.409a3.166,3.166,0,0,1,1.136-.739,3.663,3.663,0,0,1,1.3-.239,3.571,3.571,0,0,1,1.284.239,3.19,3.19,0,0,1,1.125.739L21,9.1a3.3,3.3,0,0,1,.75,1.136,3.515,3.515,0,0,1,.25,1.3,3.428,3.428,0,0,1-.25,1.284A3.33,3.33,0,0,1,21,13.936L13.341,21.6a2.1,2.1,0,0,1-.67.455A1.988,1.988,0,0,1,11.886,22.209ZM9.659,9.8Z" transform="translate(-2 -4.05)"/></svg>