<svg xmlns="http://www.w3.org/2000/svg" width="20.999" height="18.666" viewBox="0 0 20.999 18.666"><defs><style>.a{fill:#c0cdd9;}</style></defs><path class="a" d="M22.4,7.476H21.237V6.309a1.17,1.17,0,0,0-1.167-1.167H3.738A1.17,1.17,0,0,0,2.571,6.309v14a1.17,1.17,0,0,0,1.167,1.167H4.9v1.167a1.17,1.17,0,0,0,1.167,1.167H22.4a1.17,1.17,0,0,0,1.167-1.167v-14A1.17,1.17,0,0,0,22.4,7.476ZM4.9,8.643V20.309H3.74l0,0v-14l0,0H20.069l0,0V7.476h-14A1.17,1.17,0,0,0,4.9,8.643Zm17.5,14,0,0H6.073l0,0v-14l0,0H22.4l0,0ZM20.071,11.559a1.75,1.75,0,1,1-1.75-1.75A1.75,1.75,0,0,1,20.071,11.559Zm1.167,9.916h-14V19.142l4.083-7,4.666,5.833h1.167l4.083-3.5Z" transform="translate(-2.571 -5.143)"/></svg>