<svg xmlns="http://www.w3.org/2000/svg" width="1227.005" height="121.187" viewBox="0 0 1227.005 121.187"><defs><style>.a{fill:none;stroke:#1f61c5;stroke-linecap:round;stroke-linejoin:round;stroke-width:2px;}</style></defs><path class="a" d="M1224.306,118.737c-28.679-12.716-68.973,9.013-95.112-3.7s-49.29-5.868-76.176-3.26-35.847-28.036-65.72-31.948-67.214-24.811-112.023-29.7-41.822,24.159-100.821,28.4-75.429-25.428-102.315-33.9S633.3-2.482,588.5.126s-67.214,28.74-104.555,32-44.809,24.881-79.91,40.855-67.214,17.93-111.276,14.67S236.742,51.43,215.831,50.126s-39.581,14.414-57.505,18S135.175,87.651,97.087,87.651,63.48,93.845,42.569,92.867,6.721,82.761,0,78.523" transform="translate(1.379 0.996)"/></svg>