<svg xmlns="http://www.w3.org/2000/svg" xmlns:xlink="http://www.w3.org/1999/xlink" width="1249.155" height="136.455" viewBox="0 0 1249.155 136.455"><defs><style>.a{fill:none;stroke:#c0cdd9;stroke-linecap:round;stroke-linejoin:round;stroke-width:2px;}.b{filter:url(#a);}</style><filter id="a" x="0" y="0" width="1249.155" height="136.455" filterUnits="userSpaceOnUse"><feOffset dy="10" input="SourceAlpha"/><feGaussianBlur stdDeviation="5" result="b"/><feFlood flood-opacity="0.2"/><feComposite operator="in" in2="b"/><feComposite in="SourceGraphic"/></filter></defs><g class="b" transform="matrix(1, 0, 0, 1, 0, 0)"><path class="a" d="M-2.179,30.927c10.2,2.469,20.095-2.608,37.554.9C49.123,34.581,61.082,43.44,78.682,46.117c33.405,5.081,60.669,10.3,76.16,22.437s38.269,35.91,65.978,35.91,41.813-21.4,52.267-35.5c10.012-13.5,29.773-28.565,60.955-32.141,34.418-3.947,62.72-28.016,103.786-32.061,21.888-2.156,39.423,2.04,58.986,8.561s15.734,9.337,59.733,14.364c36.309,4.149,45.807,18.43,81.386,20.149S689.969-4.223,727.534.266s45.07-7.117,80.38,14.879,67.934,4.444,112.259-.045,55.871,9.437,76.906,7.642,39.976,32.155,58.007,37.093,23.144-13,61.459-13,34.217-17.8,55.253-19.149,35.8.926,42.56-4.91" transform="translate(18.39 5.99)"/></g></svg>