<svg xmlns="http://www.w3.org/2000/svg" xmlns:xlink="http://www.w3.org/1999/xlink" width="1255.366" height="136.455" viewBox="0 0 1255.366 136.455"><defs><style>.a{fill:none;stroke:#ffbe00;stroke-linecap:round;stroke-linejoin:round;stroke-width:2px;}.b{filter:url(#a);}</style><filter id="a" x="0" y="0" width="1255.366" height="136.455" filterUnits="userSpaceOnUse"><feOffset dy="10" input="SourceAlpha"/><feGaussianBlur stdDeviation="5" result="b"/><feFlood flood-opacity="0.2"/><feComposite operator="in" in2="b"/><feComposite in="SourceGraphic"/></filter></defs><g class="b" transform="matrix(1, 0, 0, 1, 0, 0)"><path class="a" d="M1222.687,30.959c-28.3-9.617-33.159-2.639-50.517.864-13.668,2.758-25.558,11.617-43.056,14.294-33.212,5.081-60.318,10.3-75.72,22.437s-38.047,35.91-65.6,35.91-41.571-21.4-51.964-35.5c-9.954-13.5-29.6-28.565-60.6-32.141C841.011,32.876,812.872,8.807,772.043,4.761,750.282,2.605,732.848,6.8,713.4,13.323s-15.643,9.337-59.388,14.364c-36.1,4.149-45.542,18.43-80.916,20.149S521.359-4.223,484.012.266,439.2-6.851,404.1,15.145s-67.541,4.444-111.611-.045-55.548,9.437-76.462,7.642S176.279,54.9,158.352,59.835s-23.01-13-61.1-13-34.02-17.8-54.934-19.149S6.723,28.613,0,22.777" transform="translate(16.41 5.99)"/></g></svg>