<svg xmlns="http://www.w3.org/2000/svg" width="1219.287" height="125.111" viewBox="0 0 1219.287 125.111"><defs><style>.a{fill:none;stroke:#55d8fe;stroke-linecap:round;stroke-linejoin:round;stroke-width:2px;}</style></defs><path class="a" d="M0,118.947c6.022,3.586,51.944,8.8,78.292-3.912s49.685-5.868,76.786-3.26,36.135-28.036,66.247-31.948,67.753-24.811,112.921-29.7,42.157,24.159,101.629,28.4,76.034-25.428,103.135-33.9S578.157-2.482,623.325.126s67.753,28.74,105.393,32,45.168,24.881,80.55,40.855,67.753,17.93,112.168,14.67S977.9,51.43,998.976,50.126s39.9,14.414,57.966,18,23.337,19.525,61.73,19.525,33.876,6.194,54.955,5.216,36.135-10.106,42.91-14.344" transform="translate(1.371 0.996)"/></svg>