<svg xmlns="http://www.w3.org/2000/svg" width="20" height="19.406" viewBox="0 0 20 19.406"><defs><style>.a{fill:#0a1a27;}</style></defs><path class="a" d="M170-771.625a4.569,4.569,0,0,1-3.375-1.312,4.569,4.569,0,0,1-1.312-3.375,4.569,4.569,0,0,1,1.313-3.375A4.569,4.569,0,0,1,170-781a4.569,4.569,0,0,1,3.375,1.313,4.569,4.569,0,0,1,1.313,3.375,4.569,4.569,0,0,1-1.312,3.375A4.569,4.569,0,0,1,170-771.625Zm8.125,10.031h-16.25a1.806,1.806,0,0,1-1.324-.551,1.806,1.806,0,0,1-.551-1.324v-1.062a3.439,3.439,0,0,1,.594-2.031,3.812,3.812,0,0,1,1.531-1.281,23.49,23.49,0,0,1,4.016-1.406,16.233,16.233,0,0,1,3.859-.469,15.549,15.549,0,0,1,3.844.484,26.136,26.136,0,0,1,4,1.4,3.773,3.773,0,0,1,1.568,1.28,3.431,3.431,0,0,1,.59,2.026v1.063a1.806,1.806,0,0,1-.551,1.324A1.806,1.806,0,0,1,178.125-761.594Zm-16.25-1.875h16.25v-1.062a1.712,1.712,0,0,0-.3-.953,1.881,1.881,0,0,0-.734-.672,16.591,16.591,0,0,0-3.656-1.328,16.165,16.165,0,0,0-3.437-.359,16.605,16.605,0,0,0-3.469.359,15.869,15.869,0,0,0-3.656,1.328,1.775,1.775,0,0,0-.719.672,1.779,1.779,0,0,0-.281.953ZM170-773.5a2.732,2.732,0,0,0,2.016-.8,2.732,2.732,0,0,0,.8-2.016,2.732,2.732,0,0,0-.8-2.016,2.732,2.732,0,0,0-2.016-.8,2.732,2.732,0,0,0-2.016.8,2.732,2.732,0,0,0-.8,2.016,2.732,2.732,0,0,0,.8,2.016A2.732,2.732,0,0,0,170-773.5ZM170-776.312ZM170-763.469Z" transform="translate(-160 781)"/></svg>