<svg xmlns="http://www.w3.org/2000/svg" xmlns:xlink="http://www.w3.org/1999/xlink" width="1325.27" height="272.309" viewBox="0 0 1325.27 272.309"><defs><style>.a,.b,.c{opacity:0.7;}.a{fill:url(#a);}.b{fill:url(#b);}.c{fill:url(#c);}.d,.e,.i,.l{fill:none;}.d,.f{stroke:#ffbe00;}.d,.e,.f,.g,.i,.j{stroke-width:2px;}.e,.g{stroke:#38b5e8;}.f,.g,.h,.j{fill:#fff;}.i,.j{stroke:#0a1a27;}.k,.m{stroke:none;}.m{fill:#ffbe00;}</style><linearGradient id="a" x1="0.5" x2="0.5" y2="1" gradientUnits="objectBoundingBox"><stop offset="0" stop-color="#0a1a27"/><stop offset="1" stop-color="#fff" stop-opacity="0"/></linearGradient><linearGradient id="b" x1="0.5" x2="0.5" y2="1" gradientUnits="objectBoundingBox"><stop offset="0" stop-color="#ffbe00"/><stop offset="1" stop-color="#fff" stop-opacity="0"/></linearGradient><linearGradient id="c" x1="0.5" x2="0.5" y2="1" gradientUnits="objectBoundingBox"><stop offset="0" stop-color="#38b5e8"/><stop offset="1" stop-color="#fff" stop-opacity="0"/></linearGradient></defs><g transform="translate(0.006 19)"><path class="a" d="M1646,490.153V401.268s-151.748,58.3-273,61.963c-131.106-3.549-153.809-28.5-255.931-61.963-87.268-27.892-174.3-35.547-257.83-33.576s-155.933,32.1-254.6,35.189C430.57,390.44,341.76,327.546,330,301.277V523.21l1316,.1Z" transform="translate(-324.998 -270)"/><path class="b" d="M330,490.153V401.268s151.748,58.3,273,61.963c131.106-3.549,153.809-28.5,255.931-61.963,87.268-27.892,174.3-35.547,257.83-33.576s155.933,32.1,254.6,35.189c174.068-12.44,262.877-75.335,274.638-101.6V523.21l-1316,.1Z" transform="translate(-324.998 -296)"/><path class="c" d="M330,490.153V401.268s151.748,58.3,273,61.963c131.106-3.549,153.809-28.5,255.931-61.963,87.268-27.892,174.3-35.547,257.83-33.576s155.933,32.1,254.6,35.189c174.068-12.44,240.669,28.73,274.638,50.182V523.21l-1316,.1Z" transform="translate(-324.998 -380)"/><path class="d" d="M313,346.5s150.792,59.691,270.019,60.976,165.022-30.8,256.343-60.9,178.134-35.23,258.06-34.218,157.625,32.548,255.829,34.221S1610.331,292.07,1628,245.24" transform="translate(-306.998 -241)"/><path class="e" d="M313,346.5s150.792,59.691,270.019,60.976,165.022-30.8,256.343-60.9,178.134-35.23,258.06-34.218,157.625,32.548,255.829,34.221c81.51,1.389,80.536,1.033,117.639,2.968,53.594,2.846,128.813,28.337,157.4,49.41" transform="translate(-306.998 -325.377)"/><g class="f" transform="translate(1315.274)"><circle class="k" cx="4.995" cy="4.995" r="4.995"/><circle class="l" cx="4.995" cy="4.995" r="3.995"/></g><g class="f" transform="translate(1039.9 101)"><circle class="k" cx="4.995" cy="4.995" r="4.995"/><circle class="l" cx="4.995" cy="4.995" r="3.995"/></g><g class="f" transform="translate(785.058 67)"><circle class="k" cx="4.995" cy="4.995" r="4.995"/><circle class="l" cx="4.995" cy="4.995" r="3.995"/></g><g class="g" transform="translate(785.058 -19)"><circle class="k" cx="4.995" cy="4.995" r="4.995"/><circle class="l" cx="4.995" cy="4.995" r="3.995"/></g><g class="g" transform="translate(527.801 16)"><circle class="k" cx="4.995" cy="4.995" r="4.995"/><circle class="l" cx="4.995" cy="4.995" r="3.995"/></g><g class="g" transform="translate(271.752 77)"><circle class="k" cx="4.995" cy="4.995" r="4.995"/><circle class="l" cx="4.995" cy="4.995" r="3.995"/></g><g class="g" transform="translate(-0.006 15)"><circle class="k" cx="4.995" cy="4.995" r="4.995"/><circle class="l" cx="4.995" cy="4.995" r="3.995"/></g><g class="g" transform="translate(1039.9 16)"><circle class="k" cx="4.995" cy="4.995" r="4.995"/><circle class="l" cx="4.995" cy="4.995" r="3.995"/></g><g class="g" transform="translate(1315.273 68.511)"><circle class="k" cx="4.995" cy="4.995" r="4.995"/><circle class="l" cx="4.995" cy="4.995" r="3.995"/></g><g class="h" transform="translate(527.801 101)"><path class="k" d="M 4.994565010070801 8.989134788513184 C 2.79195499420166 8.989134788513184 1.000005006790161 7.197175025939941 1.000005006790161 4.994565010070801 C 1.000005006790161 2.79195499420166 2.79195499420166 1.000005006790161 4.994565010070801 1.000005006790161 C 7.197175025939941 1.000005006790161 8.989134788513184 2.79195499420166 8.989134788513184 4.994565010070801 C 8.989134788513184 7.197175025939941 7.197175025939941 8.989134788513184 4.994565010070801 8.989134788513184 Z"/><path class="m" d="M 4.994565010070801 1.999995231628418 C 3.343355178833008 1.999995231628418 1.999995231628418 3.343355178833008 1.999995231628418 4.994565010070801 C 1.999995231628418 6.645774841308594 3.343355178833008 7.98912525177002 4.994565010070801 7.98912525177002 C 6.645774841308594 7.98912525177002 7.98912525177002 6.645774841308594 7.98912525177002 4.994565010070801 C 7.98912525177002 3.343355178833008 6.645774841308594 1.999995231628418 4.994565010070801 1.999995231628418 M 4.994565010070801 -4.76837158203125e-06 C 7.752985000610352 -4.76837158203125e-06 9.98912525177002 2.23614501953125 9.98912525177002 4.994565010070801 C 9.98912525177002 7.752985000610352 7.752985000610352 9.98912525177002 4.994565010070801 9.98912525177002 C 2.23614501953125 9.98912525177002 -4.76837158203125e-06 7.752985000610352 -4.76837158203125e-06 4.994565010070801 C -4.76837158203125e-06 2.23614501953125 2.23614501953125 -4.76837158203125e-06 4.994565010070801 -4.76837158203125e-06 Z"/></g><g class="f" transform="translate(271.751 162)"><circle class="k" cx="4.995" cy="4.995" r="4.995"/><circle class="l" cx="4.995" cy="4.995" r="3.995"/></g><g class="f" transform="translate(0 100)"><circle class="k" cx="4.995" cy="4.995" r="4.995"/><circle class="l" cx="4.995" cy="4.995" r="3.995"/></g><path class="i" d="M1628,346.5s-150.792,59.691-270.019,60.976-165.022-30.8-256.343-60.9S923.5,311.35,843.576,312.361s-157.625,32.548-255.829,34.222S330.667,292.07,313,245.24" transform="translate(-307.998 -215.377)"/><g class="j" transform="translate(271.752 126)"><circle class="k" cx="4.995" cy="4.995" r="4.995"/><circle class="l" cx="4.995" cy="4.995" r="3.995"/></g><g class="j" transform="translate(-0.006 27.298)"><circle class="k" cx="4.995" cy="4.995" r="4.995"/><circle class="l" cx="4.995" cy="4.995" r="3.995"/></g><g class="j" transform="translate(527.801 93)"><circle class="k" cx="4.995" cy="4.995" r="4.995"/><circle class="l" cx="4.995" cy="4.995" r="3.995"/></g><g class="j" transform="translate(785.059 123)"><circle class="k" cx="4.995" cy="4.995" r="4.995"/><circle class="l" cx="4.995" cy="4.995" r="3.995"/></g><g class="j" transform="translate(1039.9 186)"><circle class="k" cx="4.995" cy="4.995" r="4.995"/><circle class="l" cx="4.995" cy="4.995" r="3.995"/></g><g class="j" transform="translate(1315.006 127)"><circle class="k" cx="4.995" cy="4.995" r="4.995"/><circle class="l" cx="4.995" cy="4.995" r="3.995"/></g></g></svg>