<svg xmlns="http://www.w3.org/2000/svg" xmlns:xlink="http://www.w3.org/1999/xlink" width="1045.27" height="272.309" viewBox="0 0 1045.27 272.309"><defs><style>.a,.b,.c{opacity:0.7;}.a{fill:url(#a);}.b{fill:url(#b);}.c{fill:url(#c);}.d,.e,.i,.l{fill:none;}.d,.f{stroke:#ffbe00;}.d,.e,.f,.g,.i,.j{stroke-width:2px;}.e,.g{stroke:#38b5e8;}.f,.g,.h,.j{fill:#fff;}.i,.j{stroke:#0a1a27;}.k,.m{stroke:none;}.m{fill:#ffbe00;}</style><linearGradient id="a" x1="0.5" x2="0.5" y2="1" gradientUnits="objectBoundingBox"><stop offset="0" stop-color="#0a1a27"/><stop offset="1" stop-color="#fff" stop-opacity="0"/></linearGradient><linearGradient id="b" x1="0.5" x2="0.5" y2="1" gradientUnits="objectBoundingBox"><stop offset="0" stop-color="#ffbe00"/><stop offset="1" stop-color="#fff" stop-opacity="0"/></linearGradient><linearGradient id="c" x1="0.5" x2="0.5" y2="1" gradientUnits="objectBoundingBox"><stop offset="0" stop-color="#38b5e8"/><stop offset="1" stop-color="#fff" stop-opacity="0"/></linearGradient></defs><path class="a" d="M1366,490.153V401.268s-119.461,58.3-214.911,61.963c-103.211-3.549-121.083-28.5-201.477-61.963-68.7-27.892-137.212-35.547-202.972-33.576S623.881,399.793,546.2,402.88c-137.032-12.44-206.946-75.335-216.2-101.6V523.21l1036,.1Z" transform="translate(-324.992 -251)"/><path class="b" d="M330,490.153V401.268s119.461,58.3,214.911,61.963c103.211-3.549,121.083-28.5,201.477-61.963,68.7-27.892,137.213-35.547,202.972-33.576s122.756,32.1,200.433,35.189c137.032-12.44,206.946-75.335,216.2-101.6V523.21l-1036,.1Z" transform="translate(-324.992 -277)"/><path class="c" d="M330,490.153V401.268s119.461,58.3,214.911,61.963c103.211-3.549,121.083-28.5,201.477-61.963,68.7-27.892,137.213-35.547,202.972-33.576s122.756,32.1,200.433,35.189c137.032-12.44,189.463,28.73,216.2,50.182V523.21l-1036,.1Z" transform="translate(-324.992 -361)"/><path class="d" d="M313,346.5s118.684,59.691,212.525,60.976,129.884-30.8,201.76-60.9,140.2-35.23,203.112-34.218,124.062,32.548,201.356,34.221S1334.093,292.07,1348,245.24" transform="translate(-306.992 -222)"/><path class="e" d="M313,346.5s118.692,59.691,212.538,60.976,129.892-30.8,201.772-60.9,140.213-35.23,203.124-34.218,124.07,32.548,201.368,34.221c64.158,1.389,63.391,1.033,92.6,2.968,42.185,2.846,101.391,28.337,123.9,49.41" transform="translate(-306.992 -306.377)"/><g class="f" transform="translate(1035.28 19)"><circle class="k" cx="4.995" cy="4.995" r="4.995"/><circle class="l" cx="4.995" cy="4.995" r="3.995"/></g><g class="f" transform="translate(818.528 120)"><circle class="k" cx="4.995" cy="4.995" r="4.995"/><circle class="l" cx="4.995" cy="4.995" r="3.995"/></g><g class="f" transform="translate(617.938 86)"><circle class="k" cx="4.995" cy="4.995" r="4.995"/><circle class="l" cx="4.995" cy="4.995" r="3.995"/></g><g class="g" transform="translate(617.938)"><circle class="k" cx="4.995" cy="4.995" r="4.995"/><circle class="l" cx="4.995" cy="4.995" r="3.995"/></g><g class="g" transform="translate(415.446 35)"><circle class="k" cx="4.995" cy="4.995" r="4.995"/><circle class="l" cx="4.995" cy="4.995" r="3.995"/></g><g class="g" transform="translate(213.905 96)"><circle class="k" cx="4.995" cy="4.995" r="4.995"/><circle class="l" cx="4.995" cy="4.995" r="3.995"/></g><g class="g" transform="translate(0 34)"><circle class="k" cx="4.995" cy="4.995" r="4.995"/><circle class="l" cx="4.995" cy="4.995" r="3.995"/></g><g class="g" transform="translate(818.529 35)"><circle class="k" cx="4.995" cy="4.995" r="4.995"/><circle class="l" cx="4.995" cy="4.995" r="3.995"/></g><g class="g" transform="translate(1035.279 87.511)"><circle class="k" cx="4.995" cy="4.995" r="4.995"/><circle class="l" cx="4.995" cy="4.995" r="3.995"/></g><g class="h" transform="translate(415.446 120)"><path class="k" d="M 4.994565010070801 8.989134788513184 C 2.79195499420166 8.989134788513184 1.000005006790161 7.197175025939941 1.000005006790161 4.994565010070801 C 1.000005006790161 2.79195499420166 2.79195499420166 1.000005006790161 4.994565010070801 1.000005006790161 C 7.197175025939941 1.000005006790161 8.989134788513184 2.79195499420166 8.989134788513184 4.994565010070801 C 8.989134788513184 7.197175025939941 7.197175025939941 8.989134788513184 4.994565010070801 8.989134788513184 Z"/><path class="m" d="M 4.994565010070801 1.999995231628418 C 3.343355178833008 1.999995231628418 1.999995231628418 3.343355178833008 1.999995231628418 4.994565010070801 C 1.999995231628418 6.645774841308594 3.343355178833008 7.98912525177002 4.994565010070801 7.98912525177002 C 6.645774841308594 7.98912525177002 7.98912525177002 6.645774841308594 7.98912525177002 4.994565010070801 C 7.98912525177002 3.343355178833008 6.645774841308594 1.999995231628418 4.994565010070801 1.999995231628418 M 4.994565010070801 -4.76837158203125e-06 C 7.752985000610352 -4.76837158203125e-06 9.98912525177002 2.23614501953125 9.98912525177002 4.994565010070801 C 9.98912525177002 7.752985000610352 7.752985000610352 9.98912525177002 4.994565010070801 9.98912525177002 C 2.23614501953125 9.98912525177002 -4.76837158203125e-06 7.752985000610352 -4.76837158203125e-06 4.994565010070801 C -4.76837158203125e-06 2.23614501953125 2.23614501953125 -4.76837158203125e-06 4.994565010070801 -4.76837158203125e-06 Z"/></g><g class="f" transform="translate(213.905 181)"><circle class="k" cx="4.995" cy="4.995" r="4.995"/><circle class="l" cx="4.995" cy="4.995" r="3.995"/></g><g class="f" transform="translate(0.006 119)"><circle class="k" cx="4.995" cy="4.995" r="4.995"/><circle class="l" cx="4.995" cy="4.995" r="3.995"/></g><path class="i" d="M1348,346.5s-118.684,59.691-212.524,60.976-129.884-30.8-201.76-60.9-140.2-35.23-203.112-34.218-124.062,32.548-201.356,34.222S326.905,292.07,313,245.24" transform="translate(-307.992 -196.377)"/><g class="j" transform="translate(213.906 145)"><circle class="k" cx="4.995" cy="4.995" r="4.995"/><circle class="l" cx="4.995" cy="4.995" r="3.995"/></g><g class="j" transform="translate(0 46.298)"><circle class="k" cx="4.995" cy="4.995" r="4.995"/><circle class="l" cx="4.995" cy="4.995" r="3.995"/></g><g class="j" transform="translate(415.446 112)"><circle class="k" cx="4.995" cy="4.995" r="4.995"/><circle class="l" cx="4.995" cy="4.995" r="3.995"/></g><g class="j" transform="translate(617.938 142)"><circle class="k" cx="4.995" cy="4.995" r="4.995"/><circle class="l" cx="4.995" cy="4.995" r="3.995"/></g><g class="j" transform="translate(818.529 205)"><circle class="k" cx="4.995" cy="4.995" r="4.995"/><circle class="l" cx="4.995" cy="4.995" r="3.995"/></g><g class="j" transform="translate(1035.012 146)"><circle class="k" cx="4.995" cy="4.995" r="4.995"/><circle class="l" cx="4.995" cy="4.995" r="3.995"/></g></svg>