<svg xmlns="http://www.w3.org/2000/svg" width="16" height="16" viewBox="0 0 16 16"><defs><style>.a{fill:none;}.b,.c{stroke:none;}.c{fill:#d2dae0;}</style></defs><g class="a"><path class="b" d="M8,0A8,8,0,1,1,0,8,8,8,0,0,1,8,0Z"/><path class="c" d="M 8 3 C 5.242989540100098 3 3 5.242989540100098 3 8 C 3 10.75700950622559 5.242989540100098 13 8 13 C 10.75700950622559 13 13 10.75700950622559 13 8 C 13 5.242989540100098 10.75700950622559 3 8 3 M 8 0 C 12.41827964782715 0 16 3.581720352172852 16 8 C 16 12.41827964782715 12.41827964782715 16 8 16 C 3.581720352172852 16 0 12.41827964782715 0 8 C 0 3.581720352172852 3.581720352172852 0 8 0 Z"/></g></svg>