<svg xmlns="http://www.w3.org/2000/svg" xmlns:xlink="http://www.w3.org/1999/xlink" width="325.701" height="327.713" viewBox="0 0 325.701 327.713"><defs><style>.a{fill:url(#a);}.b{fill:url(#b);}.c{fill:url(#c);}.d{fill:url(#d);}.e{fill:url(#e);}.f{fill:url(#f);}.g{filter:url(#g);}</style><radialGradient id="a" cx="-0.278" cy="0.307" r="1.284" gradientTransform="matrix(1, -0.029, 0.016, 0.575, -0.005, 0.122)" gradientUnits="objectBoundingBox"><stop offset="0" stop-color="#323b67"/><stop offset="1" stop-color="#0a1a27"/></radialGradient><radialGradient id="b" cx="0.531" cy="-3.385" r="4.405" gradientTransform="matrix(0, 1, -0.41, 0, -0.855, -3.917)" gradientUnits="objectBoundingBox"><stop offset="0" stop-color="#323b67"/><stop offset="1" stop-color="#ffbe00"/></radialGradient><radialGradient id="c" cx="1.355" cy="-0.508" r="1.614" gradientTransform="matrix(0, 1, -0.917, 0, 0.889, -1.863)" gradientUnits="objectBoundingBox"><stop offset="0" stop-color="#323b67"/><stop offset="0" stop-color="#333c67"/><stop offset="1" stop-color="#d2dae0"/></radialGradient><radialGradient id="d" cx="1.767" cy="0.672" r="1.767" gradientTransform="matrix(-1, 0, 0, -0.452, 3.535, 0.975)" gradientUnits="objectBoundingBox"><stop offset="0" stop-color="#343d6a"/><stop offset="0" stop-color="#454861"/><stop offset="1" stop-color="#1f61c5"/></radialGradient><radialGradient id="e" cx="1" cy="3.055" r="3.05" gradientTransform="matrix(0, -1, 0.605, 0, -0.848, 4.055)" gradientUnits="objectBoundingBox"><stop offset="0" stop-color="#333c69"/><stop offset="0" stop-color="#484466"/><stop offset="1" stop-color="#1f61c5"/></radialGradient><radialGradient id="f" cx="0.074" cy="1.323" r="1.313" gradientTransform="matrix(0, -1, 0.734, 0, -0.897, 1.397)" gradientUnits="objectBoundingBox"><stop offset="0" stop-color="#333c69"/><stop offset="0" stop-color="#5a4167"/><stop offset="1" stop-color="#38b5e8"/></radialGradient><filter id="g" x="106.492" y="0" width="219.209" height="169.508" filterUnits="userSpaceOnUse"><feOffset dy="3" input="SourceAlpha"/><feGaussianBlur stdDeviation="7.5" result="h"/><feFlood flood-opacity="0.149"/><feComposite operator="in" in2="h"/><feComposite in="SourceGraphic"/></filter></defs><g transform="translate(0 17.5)"><path class="a" d="M132.829-51.927a152.951,152.951,0,0,1,0,127.076,152.951,152.951,0,0,1-96.038,83.217l-8.618-29.351A122.361,122.361,0,0,0,105,62.442a122.361,122.361,0,0,0,0-101.661Z" transform="translate(159.269 145.651)"/><path class="b" d="M50.966,125.3a152.951,152.951,0,0,1-86.183,0L-26.6,95.949a122.361,122.361,0,0,0,68.946,0Z" transform="translate(145.095 178.717)"/><path class="c" d="M-17.666,137.466A152.951,152.951,0,0,1-113.7,54.249l27.826-12.708a122.361,122.361,0,0,0,76.83,66.574Z" transform="translate(127.544 166.551)"/><path class="d" d="M-111.175,87.052A152.951,152.951,0,0,1-54.737-105.157L-38.2-79.423A122.361,122.361,0,0,0-83.349,74.344Z" transform="translate(125.015 133.749)"/><path class="e" d="M-67.58-100.72A152.951,152.951,0,0,1,15.111-125v30.59A122.361,122.361,0,0,0-51.042-74.986Z" transform="translate(137.858 129.312)"/><g class="g" transform="matrix(1, 0, 0, 1, 0, -17.5)"><path class="f" d="M.1-123.581c76.581-1.074,146.125,35.359,174.209,110.875L137.468.9C118.819-52.18,62.857-91.073.837-85.914Z" transform="translate(128.89 143.1)"/></g></g></svg>