<svg xmlns="http://www.w3.org/2000/svg" width="20" height="20" viewBox="0 0 20 20"><defs><style>.a{fill:#0a1a27;}</style></defs><path class="a" d="M121.667,236A1.709,1.709,0,0,1,120,234.333V217.667A1.709,1.709,0,0,1,121.667,216h13.278a1.608,1.608,0,0,1,.659.139,1.752,1.752,0,0,1,.535.361l3.361,3.361a1.752,1.752,0,0,1,.361.536,1.608,1.608,0,0,1,.139.659v13.278A1.709,1.709,0,0,1,138.333,236Zm16.667-14.889-3.444-3.444H121.667v16.667h16.667Zm-8.34,11.417a2.8,2.8,0,0,0,2.048-.841,2.769,2.769,0,0,0,.847-2.042,2.8,2.8,0,0,0-.841-2.048,2.769,2.769,0,0,0-2.042-.847,2.8,2.8,0,0,0-2.048.841,2.769,2.769,0,0,0-.847,2.042,2.8,2.8,0,0,0,.841,2.048A2.769,2.769,0,0,0,129.993,232.528Zm-6.021-9.417h8.278a.818.818,0,0,0,.833-.833v-2.306a.818.818,0,0,0-.833-.833h-8.278a.818.818,0,0,0-.833.833v2.306a.818.818,0,0,0,.833.833Zm-2.306-2v0Z" transform="translate(-120 -216)"/></svg>