<svg xmlns="http://www.w3.org/2000/svg" xmlns:xlink="http://www.w3.org/1999/xlink" width="1045.805" height="173.309" viewBox="0 0 1045.805 173.309"><defs><style>.a{opacity:0.7;fill:url(#a);}.b,.e{fill:none;}.b,.c{stroke:#1f61c5;stroke-width:2px;}.c{fill:#fff;}.d{stroke:none;}</style><linearGradient id="a" x1="0.5" x2="0.5" y2="1" gradientUnits="objectBoundingBox"><stop offset="0" stop-color="#1f61c5"/><stop offset="1" stop-color="#fff" stop-opacity="0"/></linearGradient></defs><path class="a" d="M330,490.153V354.422S446.6,489.367,542.376,494.445c106.866-1.144,107.742-70.055,201.649-107.78,78.616-29.621,138.6,51.18,204.364,53.151s111.143-55.378,200.859-59.362c116.238,6,209.51,82.62,216.747,86.74V523.21l-1036,.1Z" transform="translate(-324.995 -350)"/><path class="b" d="M312.953,279.164S433.173,416.6,527.13,417.881s126.087-80.975,201.527-108.707,140.885,52.9,203.87,53.91,123.29-60.576,200.68-58.9,165.871,48.262,214.788,85.012" transform="translate(-306.994 -274)"/><g class="c" transform="translate(1035.816 111)"><circle class="d" cx="4.995" cy="4.995" r="4.995"/><circle class="e" cx="4.995" cy="4.995" r="3.995"/></g><g class="c" transform="translate(818.951 25)"><circle class="d" cx="4.995" cy="4.995" r="4.995"/><circle class="e" cx="4.995" cy="4.995" r="3.995"/></g><g class="c" transform="translate(618.256 84)"><circle class="d" cx="4.995" cy="4.995" r="4.995"/><circle class="e" cx="4.995" cy="4.995" r="3.995"/></g><g class="c" transform="translate(415.658 30)"><circle class="d" cx="4.995" cy="4.995" r="4.995"/><circle class="e" cx="4.995" cy="4.995" r="3.995"/></g><g class="c" transform="translate(213.062 139)"><circle class="d" cx="4.995" cy="4.995" r="4.995"/><circle class="e" cx="4.995" cy="4.995" r="3.995"/></g><g class="c"><circle class="d" cx="4.995" cy="4.995" r="4.995"/><circle class="e" cx="4.995" cy="4.995" r="3.995"/></g></svg>