<svg xmlns="http://www.w3.org/2000/svg" xmlns:xlink="http://www.w3.org/1999/xlink" width="1325.805" height="173.309" viewBox="0 0 1325.805 173.309"><defs><style>.a{opacity:0.7;fill:url(#a);}.b,.e{fill:none;}.b,.c{stroke:#1f61c5;stroke-width:2px;}.c{fill:#fff;}.d{stroke:none;}</style><linearGradient id="a" x1="0.5" x2="0.5" y2="1" gradientUnits="objectBoundingBox"><stop offset="0" stop-color="#1f61c5"/><stop offset="1" stop-color="#fff" stop-opacity="0"/></linearGradient></defs><path class="a" d="M330,490.153V354.422S478.11,489.367,599.775,494.445c135.749-1.144,136.861-70.055,256.149-107.78,99.864-29.621,176.066,51.18,259.6,53.151s141.182-55.378,255.145-59.362c147.653,6,266.134,82.62,275.328,86.74V523.21l-1316,.1Z" transform="translate(-324.995 -350)"/><path class="b" d="M312.953,279.164S465.7,416.6,585.069,417.881s160.2-80.975,256.044-108.707,179,52.9,259.021,53.91,156.642-60.576,254.968-58.9,210.743,48.262,272.892,85.012" transform="translate(-306.994 -274)"/><g class="c" transform="translate(1315.816 111)"><circle class="d" cx="4.995" cy="4.995" r="4.995"/><circle class="e" cx="4.995" cy="4.995" r="3.995"/></g><g class="c" transform="translate(1040.328 25)"><circle class="d" cx="4.995" cy="4.995" r="4.995"/><circle class="e" cx="4.995" cy="4.995" r="3.995"/></g><g class="c" transform="translate(785.382 84)"><circle class="d" cx="4.995" cy="4.995" r="4.995"/><circle class="e" cx="4.995" cy="4.995" r="3.995"/></g><g class="c" transform="translate(528.018 30)"><circle class="d" cx="4.995" cy="4.995" r="4.995"/><circle class="e" cx="4.995" cy="4.995" r="3.995"/></g><g class="c" transform="translate(270.656 139)"><circle class="d" cx="4.995" cy="4.995" r="4.995"/><circle class="e" cx="4.995" cy="4.995" r="3.995"/></g><g class="c"><circle class="d" cx="4.995" cy="4.995" r="4.995"/><circle class="e" cx="4.995" cy="4.995" r="3.995"/></g></svg>