<svg xmlns="http://www.w3.org/2000/svg" width="9.528" height="9.562" viewBox="0 0 9.528 9.562"><defs><style>.a{fill:#1f61c5;}</style></defs><path class="a" d="M126.193,220.6l1.527,1.5a.4.4,0,0,1,0,.571.385.385,0,0,1-.558,0l-1.647-1.62a.385.385,0,0,1-.093-.139.443.443,0,0,1-.027-.153v-2.271a.4.4,0,1,1,.8,0Zm-.372,4.967a4.673,4.673,0,0,1-1.873-.378,4.943,4.943,0,0,1-1.534-1.029,4.807,4.807,0,0,1-1.036-1.527,4.673,4.673,0,0,1-.378-1.873,4.579,4.579,0,0,1,.378-1.859,4.769,4.769,0,0,1,1.036-1.507,4.907,4.907,0,0,1,1.534-1.016,4.744,4.744,0,0,1,1.873-.372,4.518,4.518,0,0,1,2.012.465,5.054,5.054,0,0,1,1.64,1.275V216.73a.4.4,0,1,1,.8,0V218.7a.386.386,0,0,1-.4.4h-1.979a.4.4,0,1,1,0-.8h1a4.618,4.618,0,0,0-1.375-1.089,3.612,3.612,0,0,0-1.693-.412,3.956,3.956,0,0,0-2.842,1.135,3.709,3.709,0,0,0-1.182,2.782,3.928,3.928,0,0,0,1.169,2.869,3.862,3.862,0,0,0,2.855,1.182,3.711,3.711,0,0,0,2.616-1,4.13,4.13,0,0,0,1.3-2.484.473.473,0,0,1,.146-.272.348.348,0,0,1,.279-.1.371.371,0,0,1,.286.146.413.413,0,0,1,.073.319,4.865,4.865,0,0,1-1.547,2.988A4.481,4.481,0,0,1,125.821,225.562Z" transform="translate(-121 -216)"/></svg>