<svg xmlns="http://www.w3.org/2000/svg" width="11.918" height="11.961" viewBox="0 0 11.918 11.961"><defs><style>.a{fill:#1f61c5;}</style></defs><path class="a" d="M127.5,221.748l1.91,1.877a.5.5,0,0,1,0,.714.482.482,0,0,1-.7,0l-2.06-2.027a.481.481,0,0,1-.116-.174.554.554,0,0,1-.033-.191v-2.841a.5.5,0,1,1,1,0Zm-.465,6.213a5.845,5.845,0,0,1-2.342-.473,6.183,6.183,0,0,1-1.919-1.288,6.013,6.013,0,0,1-1.3-1.91,5.845,5.845,0,0,1-.473-2.342,5.727,5.727,0,0,1,.473-2.326,5.966,5.966,0,0,1,1.3-1.886,6.138,6.138,0,0,1,1.919-1.271,5.935,5.935,0,0,1,2.342-.465,5.651,5.651,0,0,1,2.517.581,6.323,6.323,0,0,1,2.052,1.595v-1.263a.5.5,0,1,1,1,0v2.459a.483.483,0,0,1-.5.5h-2.475a.5.5,0,1,1,0-1h1.246a5.776,5.776,0,0,0-1.719-1.362,4.518,4.518,0,0,0-2.118-.515,4.948,4.948,0,0,0-3.555,1.42A4.64,4.64,0,0,0,122,221.9a4.914,4.914,0,0,0,1.462,3.588,4.831,4.831,0,0,0,3.572,1.479,4.642,4.642,0,0,0,3.273-1.246,5.166,5.166,0,0,0,1.628-3.107.591.591,0,0,1,.183-.341.436.436,0,0,1,.349-.125.464.464,0,0,1,.357.183.516.516,0,0,1,.091.4,6.086,6.086,0,0,1-1.935,3.738A5.605,5.605,0,0,1,127.031,227.961Z" transform="translate(-121 -216)"/></svg>