<svg xmlns="http://www.w3.org/2000/svg" width="20" height="17.438" viewBox="0 0 20 17.438"><path d="M62.116,223.438a.752.752,0,0,1-.731-.7.638.638,0,0,1,.109-.375l9.269-16.005a.754.754,0,0,1,.275-.275.759.759,0,0,1,.693,0,.754.754,0,0,1,.275.275l9.269,16.005a.638.638,0,0,1,.109.375.7.7,0,0,1-.109.342.683.683,0,0,1-.621.358Zm1.242-1.433H79.411L71.385,208.15Zm8.126-1.362a.684.684,0,0,0,.509-.207.705.705,0,0,0,.2-.514.684.684,0,0,0-.207-.509.705.705,0,0,0-.514-.2.684.684,0,0,0-.509.207.705.705,0,0,0-.2.514.684.684,0,0,0,.207.509A.705.705,0,0,0,71.485,220.644Zm0-2.652a.686.686,0,0,0,.509-.206.7.7,0,0,0,.2-.511v-3.918a.691.691,0,0,0-.207-.511.7.7,0,0,0-.514-.206.686.686,0,0,0-.509.206.7.7,0,0,0-.2.511v3.918a.691.691,0,0,0,.207.511A.7.7,0,0,0,71.485,217.992ZM71.385,215.078Z" transform="translate(-61.385 -206)"/></svg>